<svg width="11" height="11" viewBox="0 0 11 11" fill="none" xmlns="http://www.w3.org/2000/svg">
<g clip-path="url(#clip0_574_1738)">
<path d="M0.895292 5.16485L0.895344 5.16489L5.02025 8.79729C5.02028 8.79732 5.02031 8.79734 5.02034 8.79737C5.15269 8.91399 5.32466 8.97656 5.50044 8.97656C5.67622 8.97656 5.84818 8.91399 5.98053 8.79738C5.98056 8.79735 5.9806 8.79732 5.98063 8.79729L10.1048 5.16591C10.1738 5.10648 10.2307 5.034 10.2711 4.95207C10.3119 4.86952 10.3351 4.77946 10.3386 4.68725C10.3421 4.59503 10.3259 4.50344 10.2913 4.41803C10.2568 4.33266 10.2049 4.25574 10.1396 4.19126C10.0743 4.12682 9.99693 4.07602 9.91236 4.041C9.8278 4.00599 9.73722 3.98722 9.64576 3.98536C9.5543 3.9835 9.46304 3.99858 9.37711 4.03006C9.29176 4.06132 9.2128 4.10837 9.14514 4.16927L5.50046 7.37835L1.85559 4.16833C1.85557 4.16831 1.85556 4.1683 1.85555 4.16829C1.78736 4.10822 1.70809 4.06206 1.62261 4.03166C1.53713 4.00125 1.44655 3.987 1.35588 3.98939C1.26522 3.99178 1.17551 4.01079 1.09178 4.04575C1.00803 4.08071 0.931371 4.13117 0.866643 4.19504C0.801878 4.25894 0.750278 4.33509 0.715713 4.41958C0.681126 4.50412 0.664516 4.5948 0.667291 4.68626C0.670065 4.7777 0.692137 4.86719 0.731657 4.94949C0.771152 5.03173 0.827061 5.10473 0.895292 5.16485Z" fill="white" stroke="white" stroke-width="0.5"/>
</g>
<defs>
<clipPath id="clip0_574_1738">
<rect width="10" height="11" fill="white" transform="matrix(0 -1 1 0 0 10.5)"/>
</clipPath>
</defs>
</svg>
