<svg width="11" height="11" viewBox="0 0 11 11" fill="none" xmlns="http://www.w3.org/2000/svg">
<g clip-path="url(#clip0_120_942)">
<path d="M10.1047 5.83515L10.1047 5.83511L5.97975 2.20271C5.97972 2.20268 5.97969 2.20266 5.97966 2.20263C5.84731 2.08601 5.67534 2.02344 5.49956 2.02344C5.32378 2.02344 5.15182 2.08601 5.01947 2.20262C5.01944 2.20265 5.0194 2.20268 5.01937 2.20271L0.895164 5.83409C0.826155 5.89352 0.769333 5.966 0.728859 6.04793C0.688077 6.13048 0.664945 6.22054 0.66143 6.31275C0.657917 6.40497 0.674133 6.49656 0.70868 6.58197C0.743204 6.66734 0.7951 6.74426 0.860399 6.80874C0.925664 6.87318 1.00307 6.92398 1.08764 6.959C1.1722 6.99401 1.26278 7.01278 1.35424 7.01464C1.4457 7.0165 1.53696 7.00142 1.62289 6.96994C1.70824 6.93868 1.7872 6.89163 1.85486 6.83073L5.49954 3.62165L9.14441 6.83167C9.14443 6.83169 9.14444 6.8317 9.14445 6.83171C9.21264 6.89178 9.29191 6.93794 9.37739 6.96834C9.46287 6.99875 9.55345 7.013 9.64412 7.01061C9.73478 7.00822 9.82449 6.98921 9.90822 6.95425C9.99197 6.91929 10.0686 6.86883 10.1334 6.80496C10.1981 6.74106 10.2497 6.66491 10.2843 6.58042C10.3189 6.49588 10.3355 6.4052 10.3327 6.31374C10.3299 6.2223 10.3079 6.13281 10.2683 6.05051C10.2288 5.96827 10.1729 5.89527 10.1047 5.83515Z" fill="white" stroke="white" stroke-width="0.5"/>
</g>
<defs>
<clipPath id="clip0_120_942">
<rect width="10" height="11" fill="white" transform="matrix(0 1 -1 0 11 0.5)"/>
</clipPath>
</defs>
</svg>
