<svg width="387" height="481" viewBox="0 0 387 481" fill="none" xmlns="http://www.w3.org/2000/svg">
<path d="M99 192H4L99 287V192Z" fill="white"/>
<path d="M99 288H4L99 383V288Z" stroke="white" stroke-width="3"/>
<circle cx="242" cy="49" r="46.5" stroke="white"/>
<circle cx="195" cy="49" r="46.5" stroke="url(#paint0_linear_541_5743)"/>
<circle cx="146" cy="49" r="46.5" stroke="url(#paint1_linear_541_5743)"/>
<line x1="100" y1="48.5" x2="240" y2="48.5" stroke="white"/>
<line x1="194.5" y1="3" x2="194.5" y2="95" stroke="white"/>
<line x1="240.5" y1="3" x2="240.5" y2="95" stroke="white"/>
<line x1="194" y1="2.5" x2="237" y2="2.5" stroke="white"/>
<line x1="148" y1="2.5" x2="191" y2="2.5" stroke="white"/>
<line x1="148" y1="95.5" x2="191" y2="95.5" stroke="white"/>
<line x1="194" y1="95.5" x2="237" y2="95.5" stroke="white"/>
<circle cx="338" cy="49" r="49" fill="white"/>
<line x1="381.768" y1="6.76777" x2="296.768" y2="91.7678" stroke="black" stroke-width="5"/>
<circle cx="50.5" cy="143.5" r="47.5" fill="white"/>
<rect x="100.5" y="384.5" width="189" height="90" rx="45" stroke="white" stroke-width="3"/>
<path d="M243.5 470V392.5C213.9 390.9 204.5 416.5 203.5 429.5C204.3 462.7 230.5 470.334 243.5 470Z" fill="white"/>
<rect x="294.5" y="479.5" width="189" height="90" rx="45" transform="rotate(-90 294.5 479.5)" stroke="white" stroke-width="3"/>
<path d="M380 336.5H302.5C300.9 366.1 326.5 375.5 339.5 376.5C372.7 375.7 380.334 349.5 380 336.5Z" fill="white"/>
<circle cx="52" cy="432" r="46.5" stroke="white"/>
<circle cx="52" cy="432" r="23.5" stroke="white"/>
<path d="M147.5 288L100.5 287C102.333 319.667 124.3 384.4 197.5 382C270.7 379.6 289.667 318.333 290 288H243.5C242.833 304.5 232.1 337.1 194.5 335.5C156.9 333.9 147.5 303.167 147.5 288Z" fill="white"/>
<path d="M385.007 288V97C353.007 94.1667 289.207 108.4 290.007 188C290.807 267.6 353.674 287.833 385.007 288Z" stroke="white" stroke-width="3"/>
<path d="M194.5 98.5H287.5V191.5C287.5 242.862 245.862 284.5 194.5 284.5C143.138 284.5 101.5 242.862 101.5 191.5C101.5 140.138 143.138 98.5 194.5 98.5Z" stroke="white" stroke-width="5"/>
<g clip-path="url(#clip0_541_5743)">
<path d="M197.979 179.485C204.545 174.438 225.636 161.044 257.471 147.842C259.349 146.925 262.924 145.981 262.198 149.537L249.829 161.425C242.892 168.016 225.36 182.911 210.725 189.77L209.015 188.613C213.321 186.253 222.261 181.257 223.572 180.15C228.993 176.413 240.296 168.357 242.139 166.027L259.525 149.992L260.146 149.339C260.221 149.148 260.229 148.855 259.661 149.218C259.094 149.58 257.585 150.841 256.901 151.425C246.616 159.544 225.579 176.09 223.712 177.326C218.669 180.691 208.349 187.39 207.413 187.266L200.336 181.455C207.584 176.611 221.854 167.399 228.913 163.877C222.701 166.671 211.393 172.44 199.395 180.628L197.979 179.485Z" fill="white"/>
<path d="M160.169 201.53L180.957 190.151C189.177 195.471 193.919 200.706 195.263 202.658C195.326 202.974 195.152 202.913 195.057 202.844L192.774 201.366L173.677 220.245L162.411 205.836C156.963 203.228 153.265 207.471 152.096 209.919C151.451 213.043 149.378 220.015 146.251 222.907C143.123 225.799 139.847 226.66 138.6 226.73C141.218 227.794 145.496 227.587 147.307 227.35C150.05 227.484 153.394 225.37 154.724 224.297C154.595 225.305 153.448 226.934 152.89 227.623C150.741 229.782 147.191 230.37 145.684 230.394C149.556 231.52 154.881 231.038 157.06 230.657C159.587 230.39 163.043 227.468 164.456 226.041C165.813 223.999 166.158 222.057 166.161 221.342C166.059 221.805 164.762 223.811 164.127 224.756C163.162 226.392 160.114 228.058 158.442 228.813C158.336 228.866 158.231 228.913 158.126 228.952C158.225 228.91 158.33 228.864 158.442 228.813C160.187 227.936 161.979 225.287 162.691 224.003C163.469 222.557 164.057 219.547 164.253 218.223L161.695 222.295C160.596 224.301 158.623 225.991 157.538 226.757C157.44 226.836 157.342 226.903 157.243 226.957C157.331 226.9 157.43 226.833 157.538 226.757C159.102 225.494 160.394 221.289 160.865 219.229C160.919 218.138 161.633 215.623 161.983 214.501C160.627 214.903 159.152 218.137 158.584 219.703C158.68 217.756 159.02 216.178 159.177 215.633C159.517 213.541 161.096 211.92 161.843 211.371C161.082 211.529 159.104 212.76 157.273 216.418C155.443 220.077 152.949 222.453 151.931 223.184C154.069 221.259 155.428 216.003 155.841 213.616C158.092 207.792 162.454 208.929 164.354 210.225C170.878 216.478 172.472 220.121 172.453 221.161C173.083 224.315 169.442 227.781 167.544 229.119C159.568 234.742 149.247 233.789 145.084 232.609C136.247 230.226 130.721 225.239 129.062 223.043C134.2 225.558 138.973 224.471 140.717 223.612C146.62 221.793 149.13 213.646 149.648 209.8C152.446 202.441 158.489 202.424 161.16 203.335L161.268 203.145L160.169 201.53Z" fill="white"/>
<path d="M251.991 164.132L234.394 178.497C260.301 180.738 253.871 197.601 253.144 200.396C252.417 203.191 239.702 218.088 222.108 202.589C208.033 190.19 185.7 173.093 176.294 166.095C160.013 157.799 148.226 158.46 143.767 159.933C138.636 161.114 128.122 164.562 122.718 175.384C117.313 186.207 119.596 197.484 121.413 201.769C123.494 207.336 130.73 215.888 134.088 219.468C141.546 222.721 145.366 215.757 146.343 211.868L140.079 205.511C135.292 200.671 134.137 195.949 134.159 194.194C134.324 185.548 140.906 170.905 159.108 176.088C178.866 181.715 192.935 195.568 197.621 201.393C202.553 207.554 216.338 221.189 231.304 224.329C248.893 228.018 256.067 224.027 259.792 220.826C264.803 216.776 274.206 204.919 271.729 189.885C269.252 174.851 257.538 166.452 251.991 164.132Z" fill="white"/>
<path d="M336.126 261.64V258.128L338.712 257.579V240.77L336.126 240.222V236.692H344.866L354.933 252.661H355.036V240.77L351.744 240.222V236.692H363V240.222L360.397 240.77V261.64H354.433L344.176 246.013H344.073V257.579L347.383 258.128V261.64H336.126Z" fill="white"/>
<path d="M324.077 262C321.48 262 319.279 261.497 317.475 260.492C315.682 259.487 314.315 258.093 313.372 256.311C312.43 254.518 311.959 252.444 311.959 250.091V248.96C311.959 246.481 312.424 244.294 313.355 242.398C314.286 240.501 315.636 239.016 317.406 237.943C319.176 236.869 321.313 236.332 323.818 236.332C325.531 236.332 327.249 236.595 328.973 237.12C330.696 237.634 332.213 238.451 333.523 239.57V245.413H329.214L328.3 242.243C327.91 241.844 327.352 241.512 326.628 241.25C325.916 240.987 325.111 240.856 324.215 240.856C322.836 240.856 321.681 241.198 320.75 241.884C319.819 242.558 319.118 243.5 318.647 244.711C318.187 245.922 317.958 247.327 317.958 248.926V250.091C317.958 251.599 318.199 252.907 318.682 254.015C319.176 255.123 319.894 255.98 320.836 256.585C321.779 257.191 322.939 257.494 324.318 257.494C325.042 257.494 325.761 257.419 326.473 257.271C327.186 257.122 327.743 256.957 328.145 256.774V253.552L325.318 253.21V249.063H334.213V259.413C332.857 260.281 331.323 260.932 329.61 261.366C327.91 261.789 326.065 262 324.077 262Z" fill="white"/>
<path d="M299.565 261.64V258.128L302.168 257.579V240.77L299.565 240.222V236.692H310.804V240.222L308.201 240.77V257.579L310.804 258.128V261.64H299.565Z" fill="white"/>
<path d="M288.619 262C286.573 262 284.757 261.806 283.172 261.417C281.586 261.029 280.006 260.298 278.431 259.224V252.747H283.103L283.62 256.071C283.988 256.483 284.637 256.831 285.568 257.117C286.499 257.391 287.516 257.528 288.619 257.528C289.389 257.528 290.032 257.436 290.549 257.254C291.067 257.059 291.457 256.78 291.722 256.414C291.986 256.048 292.118 255.609 292.118 255.095C292.118 254.603 291.992 254.164 291.739 253.775C291.497 253.387 291.095 253.021 290.532 252.679C289.969 252.324 289.211 251.965 288.257 251.599C286.108 250.914 284.344 250.217 282.965 249.509C281.586 248.8 280.557 247.961 279.879 246.99C279.213 246.019 278.879 244.814 278.879 243.374C278.879 241.992 279.276 240.787 280.069 239.759C280.862 238.719 281.953 237.903 283.344 237.309C284.735 236.715 286.326 236.4 288.119 236.366C290.164 236.32 291.974 236.526 293.549 236.983C295.123 237.429 296.514 238.108 297.72 239.022V245.036H293.239L292.532 241.695C292.141 241.501 291.584 241.324 290.86 241.164C290.136 241.004 289.366 240.924 288.55 240.924C287.849 240.924 287.223 241.015 286.671 241.198C286.131 241.381 285.7 241.655 285.378 242.021C285.068 242.386 284.913 242.843 284.913 243.391C284.913 243.837 285.045 244.237 285.309 244.591C285.573 244.934 286.039 245.282 286.705 245.636C287.372 245.979 288.303 246.379 289.498 246.836C292.348 247.669 294.508 248.715 295.979 249.971C297.462 251.216 298.203 252.913 298.203 255.06C298.203 256.534 297.801 257.791 296.996 258.83C296.192 259.858 295.071 260.646 293.635 261.195C292.198 261.732 290.526 262 288.619 262Z" fill="white"/>
<path d="M255.057 261.64V258.128L257.66 257.579V240.77L255.057 240.222V236.692H275.104V243.888H270.536L270.398 241.318H263.71V246.441H271.726V251.051H263.71V256.997H270.726L270.864 254.306H275.38V261.64H255.057Z" fill="white"/>
<path d="M229.717 261.64V258.128L232.354 257.494V240.873L229.717 240.222V236.692H241.473C243.737 236.692 245.743 237.217 247.489 238.268C249.236 239.308 250.604 240.753 251.592 242.603C252.58 244.442 253.074 246.567 253.074 248.977V249.372C253.074 251.782 252.58 253.912 251.592 255.763C250.604 257.602 249.236 259.041 247.489 260.081C245.743 261.12 243.737 261.64 241.473 261.64H229.717ZM238.405 257.082H241.163C242.439 257.082 243.507 256.762 244.369 256.123C245.231 255.483 245.88 254.586 246.317 253.433C246.765 252.267 246.989 250.914 246.989 249.372V248.96C246.989 247.418 246.765 246.07 246.317 244.916C245.88 243.763 245.231 242.866 244.369 242.226C243.507 241.587 242.439 241.267 241.163 241.267H238.405V257.082Z" fill="white"/>
<path d="M210.187 262C208.141 262 206.325 261.806 204.739 261.417C203.154 261.029 201.573 260.298 199.999 259.224V252.747H204.671L205.188 256.071C205.555 256.483 206.205 256.831 207.136 257.117C208.066 257.391 209.083 257.528 210.187 257.528C210.957 257.528 211.6 257.436 212.117 257.254C212.634 257.059 213.025 256.78 213.289 256.414C213.554 256.048 213.686 255.609 213.686 255.095C213.686 254.603 213.56 254.164 213.307 253.775C213.065 253.387 212.663 253.021 212.1 252.679C211.537 252.324 210.778 251.965 209.825 251.599C207.676 250.914 205.912 250.217 204.533 249.509C203.154 248.8 202.125 247.961 201.447 246.99C200.781 246.019 200.447 244.814 200.447 243.374C200.447 241.992 200.844 240.787 201.637 239.759C202.43 238.719 203.521 237.903 204.912 237.309C206.302 236.715 207.894 236.4 209.687 236.366C211.732 236.32 213.542 236.526 215.117 236.983C216.691 237.429 218.082 238.108 219.288 239.022V245.036H214.806L214.1 241.695C213.709 241.501 213.152 241.324 212.428 241.164C211.704 241.004 210.934 240.924 210.118 240.924C209.417 240.924 208.79 241.015 208.239 241.198C207.699 241.381 207.268 241.655 206.946 242.021C206.636 242.386 206.481 242.843 206.481 243.391C206.481 243.837 206.613 244.237 206.877 244.591C207.141 244.934 207.607 245.282 208.273 245.636C208.94 245.979 209.871 246.379 211.066 246.836C213.916 247.669 216.076 248.715 217.547 249.971C219.03 251.216 219.771 252.913 219.771 255.06C219.771 256.534 219.369 257.791 218.564 258.83C217.76 259.858 216.639 260.646 215.203 261.195C213.766 261.732 212.094 262 210.187 262Z" fill="white"/>
<path d="M188.26 262C186.215 262 184.399 261.806 182.813 261.417C181.227 261.029 179.647 260.298 178.073 259.224V252.747H182.744L183.261 256.071C183.629 256.483 184.278 256.831 185.209 257.117C186.14 257.391 187.157 257.528 188.26 257.528C189.03 257.528 189.674 257.436 190.191 257.254C190.708 257.059 191.099 256.78 191.363 256.414C191.627 256.048 191.759 255.609 191.759 255.095C191.759 254.603 191.633 254.164 191.38 253.775C191.139 253.387 190.737 253.021 190.174 252.679C189.61 252.324 188.852 251.965 187.898 251.599C185.749 250.914 183.985 250.217 182.606 249.509C181.227 248.8 180.199 247.961 179.521 246.99C178.854 246.019 178.521 244.814 178.521 243.374C178.521 241.992 178.917 240.787 179.71 239.759C180.503 238.719 181.595 237.903 182.985 237.309C184.376 236.715 185.967 236.4 187.76 236.366C189.806 236.32 191.616 236.526 193.19 236.983C194.765 237.429 196.155 238.108 197.362 239.022V245.036H192.88L192.173 241.695C191.782 241.501 191.225 241.324 190.501 241.164C189.777 241.004 189.007 240.924 188.191 240.924C187.49 240.924 186.864 241.015 186.312 241.198C185.772 241.381 185.341 241.655 185.019 242.021C184.709 242.386 184.554 242.843 184.554 243.391C184.554 243.837 184.686 244.237 184.95 244.591C185.215 244.934 185.68 245.282 186.347 245.636C187.013 245.979 187.944 246.379 189.139 246.836C191.989 247.669 194.15 248.715 195.621 249.971C197.103 251.216 197.844 252.913 197.844 255.06C197.844 256.534 197.442 257.791 196.638 258.83C195.833 259.858 194.713 260.646 193.276 261.195C191.84 261.732 190.168 262 188.26 262Z" fill="white"/>
<path d="M154.698 261.64V258.128L157.301 257.579V240.77L154.698 240.222V236.692H174.746V243.888H170.178L170.04 241.318H163.351V246.441H171.367V251.051H163.351V256.997H170.367L170.505 254.306H175.021V261.64H154.698Z" fill="white"/>
<path d="M134.116 261.64V258.128L136.719 257.579V240.77L134.116 240.222V236.692H145.941V240.222L142.769 240.77V257.031H148.734L148.872 253.552H153.491V261.64H134.116Z" fill="white"/>
<path d="M115.861 261.64V258.128L118.481 257.579V241.352H114.603L114.448 244.043H109.88V236.692H133.202V244.043H128.583L128.445 241.352H124.532V257.579L127.152 258.128V261.64H115.861Z" fill="white"/>
<path d="M97.7098 261.64V258.128L100.313 257.579V240.77L97.7098 240.222V236.692H108.949V240.222L106.346 240.77V257.579L108.949 258.128V261.64H97.7098Z" fill="white"/>
<path d="M61.0622 261.64V258.128L63.6478 257.579V240.77L61.0622 240.222V236.692H72.9046L78.9723 253.124H79.0757L84.971 236.692H96.6755V240.222L94.0726 240.77V257.579L96.6755 258.128V261.64H85.4365V258.128L88.1428 257.579V254.324L88.2807 242.586L88.1773 242.569L81.0753 261.64H76.3176L69.1122 242.792L68.9916 242.809L69.4053 253.501V257.579L72.3185 258.128V261.64H61.0622Z" fill="white"/>
<path d="M48.582 261.64V258.128L51.1849 257.579V240.77L48.582 240.222V236.692H59.821V240.222L57.2181 240.77V257.579L59.821 258.128V261.64H48.582Z" fill="white"/>
<path d="M28 261.64V258.128L30.6029 257.579V240.77L28 240.222V236.692H39.8252V240.222L36.6534 240.77V257.031H42.6177L42.7556 253.552H47.3753V261.64H28Z" fill="white"/>
</g>
<defs>
<linearGradient id="paint0_linear_541_5743" x1="148" y1="45" x2="237.5" y2="45.5" gradientUnits="userSpaceOnUse">
<stop offset="0.503138" stop-color="white"/>
<stop offset="0.590138" stop-color="white" stop-opacity="0"/>
</linearGradient>
<linearGradient id="paint1_linear_541_5743" x1="99" y1="45" x2="188.5" y2="45.5" gradientUnits="userSpaceOnUse">
<stop offset="0.551329" stop-color="white"/>
<stop offset="0.589025" stop-color="white" stop-opacity="0"/>
</linearGradient>
<clipPath id="clip0_541_5743">
<rect width="335" height="89" fill="white" transform="translate(28 147)"/>
</clipPath>
</defs>
</svg>
