<svg width="428" height="219" viewBox="0 0 428 219" fill="none" xmlns="http://www.w3.org/2000/svg">
<g clip-path="url(#clip0_554_4079)">
<path d="M221.709 81.3542C238.153 68.7146 290.974 35.17 370.705 2.1088C375.409 -0.187081 384.362 -2.55242 382.544 6.35329L351.565 36.1253C334.192 52.6302 290.283 89.9341 253.632 107.111L249.349 104.213C260.133 98.3032 282.521 85.791 285.806 83.0184C299.383 73.6606 327.691 53.4858 332.307 47.6498L375.849 7.49275L377.405 5.85785C377.593 5.37819 377.612 4.64591 376.191 5.55412C374.769 6.46233 370.99 9.61809 369.278 11.0824C343.519 31.4143 290.833 72.8519 286.155 75.9475C273.526 84.3739 247.681 101.149 245.335 100.839L227.613 86.2864C245.764 74.1574 281.503 51.0859 299.181 42.2668C283.623 49.2637 255.304 63.711 225.256 84.216L221.709 81.3542Z" fill="url(#paint0_linear_554_4079)"/>
<path d="M127.015 136.562L179.078 108.064C199.665 121.388 211.541 134.498 214.906 139.388C215.063 140.178 214.628 140.026 214.391 139.852L208.673 136.151L160.844 183.431L132.629 147.346C118.985 140.813 109.722 151.441 106.796 157.572C105.18 165.395 99.9891 182.854 92.1558 190.097C84.3225 197.34 76.1177 199.497 72.9945 199.671C79.551 202.337 90.2649 201.818 94.8023 201.225C101.671 201.56 110.047 196.266 113.377 193.578C113.055 196.104 110.181 200.184 108.785 201.908C103.403 207.315 94.5104 208.787 90.7371 208.848C100.433 211.668 113.771 210.461 119.228 209.506C125.556 208.837 134.213 201.52 137.75 197.945C141.151 192.832 142.014 187.97 142.021 186.178C141.766 187.338 138.518 192.361 136.926 194.728C134.51 198.825 126.877 202.998 122.689 204.889C122.425 205.022 122.161 205.138 121.898 205.237C122.145 205.132 122.409 205.015 122.689 204.889C127.061 202.693 131.548 196.058 133.331 192.841C135.28 189.221 136.751 181.684 137.243 178.367L130.837 188.564C128.083 193.59 123.142 197.82 120.424 199.74C120.181 199.936 119.935 200.104 119.686 200.241C119.908 200.097 120.155 199.93 120.424 199.74C124.343 196.577 127.577 186.044 128.758 180.886C128.893 178.155 130.68 171.855 131.556 169.046C128.162 170.054 124.467 178.151 123.044 182.073C123.285 177.197 124.136 173.246 124.531 171.881C125.38 166.643 129.335 162.583 131.206 161.208C129.301 161.604 124.346 164.686 119.762 173.847C115.178 183.009 108.933 188.961 106.383 190.792C111.736 185.969 115.141 172.807 116.174 166.829C121.813 152.244 132.738 155.091 137.495 158.338C153.836 173.996 157.827 183.121 157.78 185.725C159.357 193.624 150.239 202.303 145.484 205.656C125.509 219.736 99.6608 217.349 89.2333 214.396C67.1028 208.426 53.2615 195.937 49.1072 190.438C61.9758 196.737 73.9299 194.013 78.2983 191.864C93.0806 187.307 99.3679 166.904 100.664 157.272C107.673 138.843 122.806 138.8 129.496 141.082L129.766 140.607L127.015 136.562Z" fill="url(#paint1_linear_554_4079)"/>
<path d="M356.98 42.9035L312.908 78.8796C377.793 84.4929 361.689 126.723 359.868 133.722C358.046 140.722 326.203 178.028 282.139 139.214C246.888 108.162 190.957 65.3462 167.398 47.8197C126.623 27.0447 97.1022 28.6987 85.9364 32.3899C73.0856 35.3469 46.7545 43.9801 33.2181 71.0845C19.6817 98.1889 25.4002 126.429 29.9514 137.161C35.1637 151.103 53.2849 172.519 61.6939 181.484C80.3726 189.631 89.9395 172.191 92.3881 162.453L76.7001 146.533C64.7096 134.411 61.8188 122.587 61.8722 118.19C62.2868 96.5385 78.7716 59.8666 124.358 72.8475C173.841 86.9379 209.075 121.632 220.813 136.218C233.165 151.649 267.689 185.796 305.171 193.658C349.222 202.897 367.187 192.903 376.518 184.885C389.068 174.744 412.618 145.049 406.414 107.399C400.21 69.7498 370.873 48.7148 356.98 42.9035Z" fill="url(#paint2_linear_554_4079)"/>
<path d="M567.695 287.099V278.302L574.171 276.929V234.832L567.695 233.459V224.619H589.583L614.796 264.613H615.055V234.832L606.809 233.459V224.619H635V233.459L628.481 234.832V287.099H613.544L587.856 247.963H587.597V276.929L595.886 278.302V287.099H567.695Z" fill="url(#paint3_linear_554_4079)"/>
<path d="M537.518 288C531.014 288 525.502 286.741 520.983 284.224C516.494 281.706 513.068 278.216 510.708 273.753C508.348 269.262 507.168 264.07 507.168 258.176V255.344C507.168 249.136 508.334 243.658 510.665 238.909C512.997 234.16 516.378 230.441 520.811 227.752C525.243 225.063 530.596 223.718 536.871 223.718C541.159 223.718 545.462 224.376 549.779 225.692C554.096 226.979 557.895 229.025 561.176 231.828V246.461H550.383L548.095 238.523C547.117 237.521 545.721 236.692 543.908 236.034C542.123 235.376 540.108 235.047 537.863 235.047C534.41 235.047 531.517 235.905 529.186 237.622C526.855 239.309 525.099 241.67 523.919 244.702C522.768 247.734 522.192 251.253 522.192 255.258V258.176C522.192 261.953 522.797 265.228 524.005 268.003C525.243 270.778 527.042 272.924 529.402 274.44C531.762 275.956 534.669 276.714 538.122 276.714C539.936 276.714 541.735 276.528 543.519 276.156C545.303 275.784 546.699 275.37 547.707 274.912V266.844L540.627 265.986V255.602H562.903V281.52C559.507 283.695 555.665 285.325 551.376 286.412C547.117 287.471 542.497 288 537.518 288Z" fill="url(#paint4_linear_554_4079)"/>
<path d="M476.128 287.099V278.302L482.647 276.929V234.832L476.128 233.459V224.619H504.276V233.459L497.757 234.832V276.929L504.276 278.302V287.099H476.128Z" fill="url(#paint5_linear_554_4079)"/>
<path d="M448.714 288C443.591 288 439.043 287.514 435.072 286.541C431.1 285.568 427.142 283.737 423.199 281.048V264.828H434.899L436.194 273.153C437.115 274.182 438.741 275.055 441.072 275.77C443.404 276.457 445.951 276.8 448.714 276.8C450.642 276.8 452.254 276.571 453.549 276.113C454.844 275.627 455.823 274.926 456.485 274.011C457.147 273.095 457.478 271.994 457.478 270.707C457.478 269.476 457.161 268.375 456.528 267.402C455.924 266.43 454.916 265.514 453.506 264.656C452.096 263.769 450.196 262.868 447.807 261.953C442.425 260.236 438.007 258.491 434.554 256.717C431.1 254.944 428.524 252.841 426.826 250.409C425.156 247.978 424.322 244.959 424.322 241.355C424.322 237.893 425.315 234.875 427.301 232.3C429.287 229.697 432.021 227.652 435.503 226.164C438.986 224.676 442.972 223.89 447.462 223.804C452.585 223.69 457.118 224.204 461.061 225.349C465.004 226.464 468.487 228.167 471.509 230.455V245.517H460.284L458.514 237.15C457.535 236.663 456.139 236.22 454.326 235.819C452.513 235.419 450.585 235.218 448.541 235.218C446.786 235.218 445.217 235.447 443.835 235.905C442.483 236.363 441.403 237.049 440.598 237.965C439.821 238.88 439.432 240.025 439.432 241.398C439.432 242.513 439.763 243.515 440.425 244.402C441.087 245.26 442.253 246.132 443.922 247.019C445.591 247.877 447.922 248.879 450.916 250.023C458.053 252.111 463.464 254.729 467.148 257.876C470.861 260.994 472.717 265.242 472.717 270.621C472.717 274.311 471.71 277.458 469.695 280.061C467.681 282.636 464.875 284.61 461.277 285.983C457.679 287.328 453.492 288 448.714 288Z" fill="url(#paint6_linear_554_4079)"/>
<path d="M364.658 287.099V278.302L371.177 276.929V234.832L364.658 233.459V224.619H414.867V242.642H403.427L403.081 236.205H386.331V249.036H406.406V260.579H386.331V275.47H403.902L404.247 268.733H415.558V287.099H364.658Z" fill="url(#paint7_linear_554_4079)"/>
<path d="M301.196 287.099V278.302L307.801 276.714V235.09L301.196 233.459V224.619H330.639C336.309 224.619 341.331 225.935 345.706 228.567C350.081 231.17 353.506 234.789 355.981 239.424C358.456 244.03 359.694 249.351 359.694 255.387V256.374C359.694 262.41 358.456 267.746 355.981 272.38C353.506 276.986 350.081 280.591 345.706 283.194C341.331 285.797 336.309 287.099 330.639 287.099H301.196ZM322.955 275.684H329.862C333.057 275.684 335.733 274.883 337.892 273.281C340.051 271.679 341.677 269.433 342.77 266.544C343.893 263.626 344.454 260.236 344.454 256.374V255.344C344.454 251.482 343.893 248.106 342.77 245.217C341.677 242.328 340.051 240.082 337.892 238.48C335.733 236.878 333.057 236.077 329.862 236.077H322.955V275.684Z" fill="url(#paint8_linear_554_4079)"/>
<path d="M252.282 288C247.159 288 242.612 287.514 238.64 286.541C234.668 285.568 230.711 283.737 226.768 281.048V264.828H238.467L239.763 273.153C240.684 274.182 242.31 275.055 244.641 275.77C246.972 276.457 249.519 276.8 252.282 276.8C254.211 276.8 255.822 276.571 257.118 276.113C258.413 275.627 259.391 274.926 260.053 274.011C260.715 273.095 261.046 271.994 261.046 270.707C261.046 269.476 260.73 268.375 260.096 267.402C259.492 266.43 258.485 265.514 257.074 264.656C255.664 263.769 253.765 262.868 251.376 261.953C245.994 260.236 241.576 258.491 238.122 256.717C234.668 254.944 232.092 252.841 230.394 250.409C228.725 247.978 227.89 244.959 227.89 241.355C227.89 237.893 228.883 234.875 230.869 232.3C232.855 229.697 235.589 227.652 239.072 226.164C242.554 224.676 246.541 223.89 251.03 223.804C256.153 223.69 260.686 224.204 264.629 225.349C268.573 226.464 272.055 228.167 275.077 230.455V245.517H263.852L262.082 237.15C261.104 236.663 259.708 236.22 257.895 235.819C256.081 235.419 254.153 235.218 252.11 235.218C250.354 235.218 248.785 235.447 247.404 235.905C246.051 236.363 244.972 237.049 244.166 237.965C243.389 238.88 243 240.025 243 241.398C243 242.513 243.331 243.515 243.993 244.402C244.655 245.26 245.821 246.132 247.49 247.019C249.16 247.877 251.491 248.879 254.484 250.023C261.622 252.111 267.033 254.729 270.717 257.876C274.429 260.994 276.286 265.242 276.286 270.621C276.286 274.311 275.279 277.458 273.264 280.061C271.249 282.636 268.443 284.61 264.845 285.983C261.248 287.328 257.06 288 252.282 288Z" fill="url(#paint9_linear_554_4079)"/>
<path d="M197.368 288C192.245 288 187.697 287.514 183.726 286.541C179.754 285.568 175.796 283.737 171.853 281.048V264.828H183.553L184.848 273.153C185.769 274.182 187.395 275.055 189.726 275.77C192.058 276.457 194.605 276.8 197.368 276.8C199.296 276.8 200.908 276.571 202.203 276.113C203.498 275.627 204.477 274.926 205.139 274.011C205.801 273.095 206.132 271.994 206.132 270.707C206.132 269.476 205.815 268.375 205.182 267.402C204.578 266.43 203.57 265.514 202.16 264.656C200.75 263.769 198.85 262.868 196.461 261.953C191.079 260.236 186.661 258.491 183.208 256.717C179.754 254.944 177.178 252.841 175.48 250.409C173.811 247.978 172.976 244.959 172.976 241.355C172.976 237.893 173.969 234.875 175.955 232.3C177.941 229.697 180.675 227.652 184.157 226.164C187.64 224.676 191.626 223.89 196.116 223.804C201.239 223.69 205.772 224.204 209.715 225.349C213.658 226.464 217.141 228.167 220.163 230.455V245.517H208.938L207.168 237.15C206.189 236.663 204.793 236.22 202.98 235.819C201.167 235.419 199.239 235.218 197.195 235.218C195.44 235.218 193.871 235.447 192.489 235.905C191.137 236.363 190.057 237.049 189.252 237.965C188.474 238.88 188.086 240.025 188.086 241.398C188.086 242.513 188.417 243.515 189.079 244.402C189.741 245.26 190.906 246.132 192.576 247.019C194.245 247.877 196.576 248.879 199.57 250.023C206.707 252.111 212.118 254.729 215.802 257.876C219.515 260.994 221.371 265.242 221.371 270.621C221.371 274.311 220.364 277.458 218.349 280.061C216.335 282.636 213.529 284.61 209.931 285.983C206.333 287.328 202.146 288 197.368 288Z" fill="url(#paint10_linear_554_4079)"/>
<path d="M113.312 287.099V278.302L119.831 276.929V234.832L113.312 233.459V224.619H163.521V242.642H152.081L151.735 236.205H134.985V249.036H155.06V260.579H134.985V275.47H152.556L152.901 268.733H164.212V287.099H113.312Z" fill="url(#paint11_linear_554_4079)"/>
<path d="M61.7654 287.099V278.302L68.2843 276.929V234.832L61.7654 233.459V224.619H91.3812V233.459L83.4376 234.832V275.556H98.375L98.7204 266.844H110.29V287.099H61.7654Z" fill="url(#paint12_linear_554_4079)"/>
<path d="M16.0465 287.099V278.302L22.6086 276.929V236.291H12.8949L12.5064 243.028H1.06587V224.619H59.4773V243.028H47.9072L47.5619 236.291H37.7619V276.929L44.324 278.302V287.099H16.0465Z" fill="url(#paint13_linear_554_4079)"/>
<path d="M-29.4134 287.099V278.302L-22.8945 276.929V234.832L-29.4134 233.459V224.619H-1.2654V233.459L-7.78433 234.832V276.929L-1.2654 278.302V287.099H-29.4134Z" fill="url(#paint14_linear_554_4079)"/>
<path d="M-121.197 287.099V278.302L-114.721 276.929V234.832L-121.197 233.459V224.619H-91.5376L-76.3411 265.772H-76.0821L-61.3173 224.619H-32.0037V233.459L-38.5226 234.832V276.929L-32.0037 278.302V287.099H-60.1517V278.302L-53.3737 276.929V268.776L-53.0284 239.381L-53.2874 239.338L-71.0741 287.099H-82.9895L-101.035 239.896L-101.338 239.939L-100.301 266.716V276.929L-93.0054 278.302V287.099H-121.197Z" fill="url(#paint15_linear_554_4079)"/>
<path d="M-152.453 287.099V278.302L-145.934 276.929V234.832L-152.453 233.459V224.619H-124.305V233.459L-130.824 234.832V276.929L-124.305 278.302V287.099H-152.453Z" fill="url(#paint16_linear_554_4079)"/>
<path d="M-204 287.099V278.302L-197.481 276.929V234.832L-204 233.459V224.619H-174.384V233.459L-182.328 234.832V275.556H-167.39L-167.045 266.844H-155.475V287.099H-204Z" fill="url(#paint17_linear_554_4079)"/>
</g>
<defs>
<linearGradient id="paint0_linear_554_4079" x1="215.5" y1="0" x2="215.5" y2="288" gradientUnits="userSpaceOnUse">
<stop offset="0.265625" stop-color="white"/>
<stop offset="1" stop-color="#1D1D1D"/>
</linearGradient>
<linearGradient id="paint1_linear_554_4079" x1="215.5" y1="0" x2="215.5" y2="288" gradientUnits="userSpaceOnUse">
<stop offset="0.265625" stop-color="white"/>
<stop offset="1" stop-color="#1D1D1D"/>
</linearGradient>
<linearGradient id="paint2_linear_554_4079" x1="215.5" y1="0" x2="215.5" y2="288" gradientUnits="userSpaceOnUse">
<stop offset="0.265625" stop-color="white"/>
<stop offset="1" stop-color="#1D1D1D"/>
</linearGradient>
<linearGradient id="paint3_linear_554_4079" x1="215.5" y1="0" x2="215.5" y2="288" gradientUnits="userSpaceOnUse">
<stop offset="0.265625" stop-color="white"/>
<stop offset="1" stop-color="#1D1D1D"/>
</linearGradient>
<linearGradient id="paint4_linear_554_4079" x1="215.5" y1="0" x2="215.5" y2="288" gradientUnits="userSpaceOnUse">
<stop offset="0.265625" stop-color="white"/>
<stop offset="1" stop-color="#1D1D1D"/>
</linearGradient>
<linearGradient id="paint5_linear_554_4079" x1="215.5" y1="0" x2="215.5" y2="288" gradientUnits="userSpaceOnUse">
<stop offset="0.265625" stop-color="white"/>
<stop offset="1" stop-color="#1D1D1D"/>
</linearGradient>
<linearGradient id="paint6_linear_554_4079" x1="215.5" y1="0" x2="215.5" y2="288" gradientUnits="userSpaceOnUse">
<stop offset="0.265625" stop-color="white"/>
<stop offset="1" stop-color="#1D1D1D"/>
</linearGradient>
<linearGradient id="paint7_linear_554_4079" x1="215.5" y1="0" x2="215.5" y2="288" gradientUnits="userSpaceOnUse">
<stop offset="0.265625" stop-color="white"/>
<stop offset="1" stop-color="#1D1D1D"/>
</linearGradient>
<linearGradient id="paint8_linear_554_4079" x1="215.5" y1="0" x2="215.5" y2="288" gradientUnits="userSpaceOnUse">
<stop offset="0.265625" stop-color="white"/>
<stop offset="1" stop-color="#1D1D1D"/>
</linearGradient>
<linearGradient id="paint9_linear_554_4079" x1="215.5" y1="0" x2="215.5" y2="288" gradientUnits="userSpaceOnUse">
<stop offset="0.265625" stop-color="white"/>
<stop offset="1" stop-color="#1D1D1D"/>
</linearGradient>
<linearGradient id="paint10_linear_554_4079" x1="215.5" y1="0" x2="215.5" y2="288" gradientUnits="userSpaceOnUse">
<stop offset="0.265625" stop-color="white"/>
<stop offset="1" stop-color="#1D1D1D"/>
</linearGradient>
<linearGradient id="paint11_linear_554_4079" x1="215.5" y1="0" x2="215.5" y2="288" gradientUnits="userSpaceOnUse">
<stop offset="0.265625" stop-color="white"/>
<stop offset="1" stop-color="#1D1D1D"/>
</linearGradient>
<linearGradient id="paint12_linear_554_4079" x1="215.5" y1="0" x2="215.5" y2="288" gradientUnits="userSpaceOnUse">
<stop offset="0.265625" stop-color="white"/>
<stop offset="1" stop-color="#1D1D1D"/>
</linearGradient>
<linearGradient id="paint13_linear_554_4079" x1="215.5" y1="0" x2="215.5" y2="288" gradientUnits="userSpaceOnUse">
<stop offset="0.265625" stop-color="white"/>
<stop offset="1" stop-color="#1D1D1D"/>
</linearGradient>
<linearGradient id="paint14_linear_554_4079" x1="215.5" y1="0" x2="215.5" y2="288" gradientUnits="userSpaceOnUse">
<stop offset="0.265625" stop-color="white"/>
<stop offset="1" stop-color="#1D1D1D"/>
</linearGradient>
<linearGradient id="paint15_linear_554_4079" x1="215.5" y1="0" x2="215.5" y2="288" gradientUnits="userSpaceOnUse">
<stop offset="0.265625" stop-color="white"/>
<stop offset="1" stop-color="#1D1D1D"/>
</linearGradient>
<linearGradient id="paint16_linear_554_4079" x1="215.5" y1="0" x2="215.5" y2="288" gradientUnits="userSpaceOnUse">
<stop offset="0.265625" stop-color="white"/>
<stop offset="1" stop-color="#1D1D1D"/>
</linearGradient>
<linearGradient id="paint17_linear_554_4079" x1="215.5" y1="0" x2="215.5" y2="288" gradientUnits="userSpaceOnUse">
<stop offset="0.265625" stop-color="white"/>
<stop offset="1" stop-color="#1D1D1D"/>
</linearGradient>
<clipPath id="clip0_554_4079">
<rect width="428" height="219" fill="white"/>
</clipPath>
</defs>
</svg>
